<svg width="200" height="50" viewBox="0 0 200 50" fill="none" xmlns="http://www.w3.org/2000/svg">
<g transform="translate(0, 4) scale(0.35)">
<defs>
<linearGradient id="prokit-grad-text" x1="0" y1="0" x2="120" y2="120" gradientUnits="userSpaceOnUse">
<stop stop-color="#60A5FA"/>
<stop offset="1" stop-color="#2563EB"/>
</linearGradient>
</defs>
<path d="M36 20C30.4772 20 26 24.4772 26 30V90C26 95.5228 30.4772 100 36 100H44C49.5228 100 54 95.5228 54 90V68H62C81.8822 68 98 51.8822 98 32V30C98 24.4772 93.5228 20 88 20H36ZM54 50V38H80V50H54Z" fill="url(#prokit-grad-text)"/>
<path fill-rule="evenodd" clip-rule="evenodd" d="M110 32C110 39.839 106.861 46.9591 101.756 52.1527L112.728 63.1244C115.657 66.0533 115.657 70.802 112.728 73.731L101.414 85.0447C98.4854 87.9736 93.7367 87.9736 90.8077 85.0447L79.836 74.073C74.6423 79.1785 67.5222 82.3173 59.6831 82.3173C58.3818 82.3173 57.0981 82.241 55.8348 82.0915C59.5865 78.3343 62.5693 73.7854 64.5589 68.7259C65.349 69.0497 66.1847 69.2358 67.0661 69.2358C70.8459 69.2358 73.9584 66.3417 74.4613 62.6419L87.3726 75.5532C88.4015 76.5822 90.0697 76.5822 91.0987 75.5532L99.584 67.0679C100.613 66.039 100.613 64.3708 99.584 63.3419L86.6727 50.4306C90.3725 49.9277 93.2666 46.8152 93.2666 43.0353C93.2666 42.1539 93.0804 41.3182 92.7567 40.5281C97.8162 38.5385 102.365 35.5557 106.122 31.804C106.272 33.0673 106.348 34.351 106.348 35.6523V32C110 32 110 32 110 32Z" fill="#1E40AF"/>
</g>

<text x="55" y="35" font-family="Inter, sans-serif" font-weight="700" font-size="28" fill="white">Pro<tspan fill="#3b82f6">Kit</tspan></text>
</svg>
